<svg width="144" height="144" version="1.1" viewBox="0 0 38.1 38.1" xmlns="http://www.w3.org/2000/svg"><g transform="translate(-28.369 -108.38)" stroke-width=".69068"><path d="m31.485 145.92v-4.8886h4.879v-19.554h-2.4395v-4.8886h2.4395v-4.8886h4.879v29.332h4.879v4.8886z"/><path d="m51.001 145.92v-4.8886h-2.4395v-4.8886h4.879v4.8886h7.3186v-9.7772h-7.3186v-4.8886h2.4395v-4.8886h2.4395v-4.8886h-7.3186v-4.8886h14.637v4.8886h-2.4395v4.8886h-2.4395v4.8886h2.4395v4.8886h2.4395v9.7772h-2.4395v4.8886z"/><path d="m29.972 144.53v-4.8886h4.879v-19.554h-2.4395v-4.8886h2.4395v-4.8886h4.879v29.332h4.879v4.8886z" fill="#0f0"/><path d="m49.488 144.53v-4.8886h-2.4395v-4.8886h4.879v4.8886h7.3186v-9.7772h-7.3186v-4.8886h2.4395v-4.8886h2.4395v-4.8886h-7.3186v-4.8886h14.637v4.8886h-2.4395v4.8886h-2.4395v4.8886h2.4395v4.8886h2.4395v9.7772h-2.4395v4.8886z" fill="#0f0"/></g></svg>
