<?xml version="1.0" encoding="UTF-8" standalone="no"?>
<svg
   width="760.87"
   height="1002.3"
   version="1.1"
   viewBox="0 0 760.87 1002.3"
   id="svg236"
   sodipodi:docname="temp.svg"
   inkscape:version="1.1.2 (0a00cf5339, 2022-02-04)"
   xmlns:inkscape="http://www.inkscape.org/namespaces/inkscape"
   xmlns:sodipodi="http://sodipodi.sourceforge.net/DTD/sodipodi-0.dtd"
   xmlns="http://www.w3.org/2000/svg"
   xmlns:svg="http://www.w3.org/2000/svg">
  <defs
     id="defs240" />
  <sodipodi:namedview
     id="namedview238"
     pagecolor="#505050"
     bordercolor="#eeeeee"
     borderopacity="1"
     inkscape:pageshadow="0"
     inkscape:pageopacity="0"
     inkscape:pagecheckerboard="0"
     showgrid="false"
     inkscape:zoom="0.84206326"
     inkscape:cx="380.61273"
     inkscape:cy="500.55621"
     inkscape:window-width="1920"
     inkscape:window-height="1016"
     inkscape:window-x="0"
     inkscape:window-y="27"
     inkscape:window-maximized="1"
     inkscape:current-layer="svg236" />
  <rect
     x="4"
     y="4"
     width="702.95001"
     height="994.31"
     rx="109.05"
     ry="61.431999"
     fill="#a6a7b9"
     id="rect2"
     style="stroke:#000000;stroke-width:4"
     sodipodi:insensitive="true" />
  <rect
     x="53.917999"
     y="4"
     width="702.95001"
     height="994.31"
     rx="79.633003"
     ry="61.431999"
     fill="#dddddc"
     id="rect4"
     style="stroke:#000000;stroke-width:4"
     sodipodi:insensitive="true" />
  <rect
     x="107.78"
     y="122.84"
     width="591.96002"
     height="204.96001"
     rx="38.429001"
     ry="28.857"
     fill="none"
     stroke-linejoin="round"
     id="rect6"
     style="stroke:#000000;stroke-width:4" />
  <rect
     id="icc_visor"
     x="107.78"
     y="120.82"
     width="571.98"
     height="206.98"
     rx="38.429"
     ry="28.857"
     fill="#a5a7b9"
     fill-rule="evenodd"
     stroke="#000"
     stroke-linejoin="round"
     stroke-width="6" />
  <rect
     x="349.42996"
     y="399.48898"
     width="90.778"
     height="80.353996"
     rx="13.168"
     ry="14.984"
     id="rect11"
     style="fill:#3e4052"
     sodipodi:insensitive="true" />
  <rect
     x="105.42995"
     y="398.91901"
     width="90.778"
     height="80.353996"
     rx="13.168"
     ry="14.984"
     id="rect13"
     style="fill:#3e4052" />
  <rect
     x="592.32996"
     y="398.48898"
     width="90.778"
     height="80.353996"
     rx="13.168"
     ry="14.984"
     id="rect15"
     style="fill:#3e4052" />
  <rect
     x="470.82999"
     y="398.979"
     width="90.778"
     height="80.353996"
     rx="13.168"
     ry="14.984"
     id="rect17"
     style="fill:#3e4052"
     sodipodi:insensitive="true" />
  <rect
     x="226.32997"
     y="399.48898"
     width="90.778"
     height="80.353996"
     rx="13.168"
     ry="14.984"
     id="rect19"
     style="fill:#3e4052" />
  <rect
     x="349.32999"
     y="514.98901"
     width="90.778"
     height="80.353996"
     rx="13.168"
     ry="14.984"
     id="rect21"
     style="fill:#3e4052" />
  <rect
     x="105.42995"
     y="514.41901"
     width="90.778"
     height="80.353996"
     rx="13.168"
     ry="14.984"
     id="rect23"
     style="fill:#3e4052"
     sodipodi:insensitive="true" />
  <rect
     x="592.32996"
     y="513.98901"
     width="90.778"
     height="80.353996"
     rx="13.168"
     ry="14.984"
     id="rect25"
     style="fill:#3e4052" />
  <rect
     x="470.82999"
     y="514.479"
     width="90.778"
     height="80.353996"
     rx="13.168"
     ry="14.984"
     id="rect27"
     style="fill:#3e4052" />
  <rect
     x="226.32997"
     y="514.98901"
     width="90.778"
     height="80.353996"
     rx="13.168"
     ry="14.984"
     id="rect29"
     style="fill:#3e4052" />
  <rect
     x="349.73001"
     y="630.979"
     width="90.778"
     height="80.353996"
     rx="13.168"
     ry="14.984"
     id="rect31"
     style="fill:#3e4052" />
  <rect
     x="105.82998"
     y="630.41901"
     width="90.778"
     height="80.353996"
     rx="13.168"
     ry="14.984"
     id="rect33"
     style="fill:#3e4052" />
  <rect
     x="592.72998"
     y="629.98901"
     width="90.778"
     height="80.353996"
     rx="13.168"
     ry="14.984"
     id="rect35"
     style="fill:#3e4052" />
  <rect
     x="471.23001"
     y="630.479"
     width="90.778"
     height="80.353996"
     rx="13.168"
     ry="14.984"
     id="rect37"
     style="fill:#3e4052" />
  <rect
     x="226.73"
     y="630.979"
     width="90.778"
     height="80.353996"
     rx="13.168"
     ry="14.984"
     id="rect39"
     style="fill:#3e4052" />
  <rect
     x="350.32999"
     y="745.48901"
     width="90.778"
     height="80.353996"
     rx="13.168"
     ry="14.984"
     id="rect41"
     style="fill:#3e4052" />
  <rect
     x="106.42995"
     y="744.91901"
     width="90.778"
     height="80.353996"
     rx="13.168"
     ry="14.984"
     id="rect43"
     style="fill:#3e4052" />
  <rect
     x="593.32996"
     y="744.48901"
     width="90.778"
     height="80.353996"
     rx="13.168"
     ry="14.984"
     id="rect45"
     style="fill:#3e4052" />
  <rect
     x="471.82999"
     y="744.979"
     width="90.778"
     height="80.353996"
     rx="13.168"
     ry="14.984"
     id="rect47"
     style="fill:#3e4052" />
  <rect
     x="227.32997"
     y="745.48901"
     width="90.778"
     height="80.353996"
     rx="13.168"
     ry="14.984"
     id="rect49"
     style="fill:#3e4052" />
  <rect
     x="349.23001"
     y="859.48901"
     width="90.778"
     height="80.353996"
     rx="13.168"
     ry="14.984"
     id="rect51"
     style="fill:#3e4052" />
  <rect
     x="105.23"
     y="858.91901"
     width="90.778"
     height="80.353996"
     rx="13.168"
     ry="14.984"
     id="rect53"
     style="fill:#3e4052" />
  <rect
     x="592.22998"
     y="858.48901"
     width="90.778"
     height="80.353996"
     rx="13.168"
     ry="14.984"
     id="rect55"
     style="fill:#3e4052" />
  <rect
     x="470.73001"
     y="858.979"
     width="90.778"
     height="80.353996"
     rx="13.168"
     ry="14.984"
     id="rect57"
     style="fill:#3e4052" />
  <rect
     x="226.23"
     y="859.48901"
     width="90.778"
     height="80.353996"
     rx="13.168"
     ry="14.984"
     id="rect59"
     style="fill:#3e4052" />
  <rect
     x="241.45"
     y="744.78003"
     width="90.778"
     height="80.353996"
     rx="13.168"
     ry="14.984"
     id="rect62"
     style="fill:#ffff00" />
  <path
     d="m 306.39,807.16 0.9471,-7.7684 h -12.657 v -34.234 l -11.71,0.72417 v 4.8717 l -12.743,0.92168 0.2584,6.7809 h 12.485 v 20.935 h -14.207 v 7.7684 z"
     id="path64" />
  <rect
     x="364.45999"
     y="744.78003"
     width="90.778"
     height="80.353996"
     rx="13.168"
     ry="14.984"
     id="rect68"
     style="fill:#ffff00" />
  <path
     d="m 426.13,806.43 v -7.9659 h -21.44 c 12.657,-7.3734 20.407,-12.904 20.407,-21.001 0,-6.8468 -7.491,-12.574 -32.633,-12.377 l -1.0332,8.6243 c 16.618,0.32918 21.526,2.0409 21.526,6.3201 0,5.3326 -8.1799,10.731 -23.162,19.092 l 1.2054,7.3076 z"
     id="path70" />
  <rect
     x="485.94"
     y="744.27002"
     width="90.778"
     height="80.353996"
     rx="13.168"
     ry="14.984"
     id="rect74"
     style="fill:#ffff00" />
  <path
     d="m 513.91,808.14 c 23.765,-0.92168 34.097,-6.3201 34.097,-13.496 0,-4.5426 -4.908,-8.5585 -17.651,-10.599 l 16.274,-9.6118 -0.8611,-8.0318 h -31.686 v 8.0318 h 20.148 l -17.221,10.27 v 4.0817 c 14.035,1.3825 19.201,4.0817 19.201,6.4518 0,2.5017 -4.994,3.6209 -23.076,4.4767 z"
     id="path76" />
  <rect
     x="240.84"
     y="630.27002"
     width="90.778"
     height="80.353996"
     rx="13.168"
     ry="14.984"
     id="rect80"
     style="fill:#ffff00" />
  <path
     d="m 305.41,685.83 0.9471,-7.966 h -5.6828 v -13.759 l -11.194,0.92168 v 12.838 h -12.657 l 8.5243,-25.675 -13.002,-0.59251 c -3.7886,11.719 -5.5968,25.149 -5.0801,34.234 h 22.215 v 6.9784 h 11.194 v -6.9784 z"
     id="path82" />
  <rect
     x="363.85001"
     y="630.27002"
     width="90.778"
     height="80.353996"
     rx="13.168"
     ry="14.984"
     id="rect86"
     style="fill:#ffff00" />
  <path
     d="m 425.88,678.48 c 0,-5.1351 -5.1662,-9.7435 -22.301,-11.718 l 0.5167,-7.0443 19.287,0.0658 0.9472,-8.0976 h -30.395 l -1.6361,20.935 c 16.101,1.5142 22.215,3.6867 22.215,6.5176 0,3.4234 -5.5968,4.6742 -23.679,5.7934 l 0.6888,8.5585 c 24.109,-1.1192 34.355,-7.3076 34.355,-15.01 z"
     id="path88" />
  <rect
     x="485.34"
     y="629.77002"
     width="90.778"
     height="80.353996"
     rx="13.168"
     ry="14.984"
     id="rect92"
     style="fill:#ffff00" />
  <path
     d="m 528.58,692.91 c 10.419,0 19.459,-5.3984 19.459,-14.22 0,-10.468 -13.777,-14.813 -25.831,-9.4143 2.1526,-4.5426 7.6632,-8.0976 20.579,-11.85 l -4.994,-7.7026 c -19.546,6.4518 -28.156,15.537 -28.156,26.992 0,10.533 7.5771,16.195 18.943,16.195 z m 1.1194,-7.2418 c -4.8219,0 -8.6965,-2.8967 -8.6965,-9.8751 v -1.1192 c 9.3853,-3.16 15.757,-0.92168 15.757,4.8059 0,4.1476 -2.8413,6.1884 -7.0604,6.1884 z"
     id="path94" />
  <rect
     x="240.45"
     y="514.28003"
     width="90.778"
     height="80.353996"
     rx="13.168"
     ry="14.984"
     id="rect98"
     style="fill:#ffff00" />
  <path
     d="m 282.75,576.33 c 4.9079,-11.192 11.71,-22.647 20.062,-33.378 v -8.0318 h -36.078 l -0.861,8.2951 h 24.626 l 0.2583,0.395 c -8.4383,10.402 -15.413,20.935 -20.321,31.732 z"
     id="path100" />
  <rect
     x="363.45999"
     y="514.28003"
     width="90.778"
     height="80.353996"
     rx="13.168"
     ry="14.984"
     id="rect104"
     style="fill:#ffff00" />
  <path
     d="m 407.72,576.77 c 12.485,0 20.062,-5.2668 20.062,-11.916 0,-4.9376 -4.9079,-8.0318 -10.505,-10.533 5.9412,-2.4359 9.3853,-5.5301 9.3853,-10.204 0,-6.1226 -7.6632,-10.007 -17.393,-10.007 -12.313,0 -18.857,5.7934 -18.857,11.521 0,4.4109 4.133,7.5051 9.127,10.007 -6.1134,2.6334 -9.8159,6.1226 -9.8159,10.731 0,6.3201 7.6632,10.402 17.996,10.402 z m -5.6828,-32.193 c 0,-1.8434 2.2386,-3.4892 6.5438,-3.4892 4.8219,0 6.8023,2.0409 6.8023,4.7401 0,2.1067 -1.6361,4.2134 -4.3052,5.7934 -4.908,-2.0409 -9.041,-4.0817 -9.041,-7.0443 z m 6.8022,25.215 c -5.4246,0 -7.6632,-2.2384 -7.6632,-5.2667 0,-2.37 1.636,-4.5426 4.3913,-6.1884 5.5107,2.4359 10.505,4.6084 10.505,7.6368 0,2.1725 -2.8415,3.8184 -7.2328,3.8184 z"
     id="path106" />
  <rect
     x="484.94"
     y="513.77002"
     width="90.778"
     height="80.353996"
     rx="13.168"
     ry="14.984"
     id="rect110"
     style="fill:#ffff00" />
  <path
     d="m 523.74,577.15 c 19.546,-6.4518 28.156,-15.537 28.156,-26.992 0,-10.599 -7.5772,-16.195 -18.943,-16.195 -10.419,0 -19.46,5.3984 -19.46,14.22 0,10.468 13.777,14.747 25.831,9.4143 -2.1525,4.5426 -7.6632,8.0318 -20.579,11.85 z m 1.0333,-29.823 c 0,-4.0817 2.8415,-6.1226 7.0605,-6.1226 4.8218,0 8.6965,2.8967 8.6965,9.8751 v 1.1192 c -9.3853,3.0942 -15.757,0.92168 -15.757,-4.8717 z"
     id="path112" />
  <rect
     x="240.28999"
     y="858.78003"
     width="90.778"
     height="80.353996"
     rx="13.168"
     ry="14.984"
     id="rect116"
     style="fill:#ffff00" />
  <path
     d="m 282.33,920.05 c 12.829,0 20.751,-8.8218 20.751,-22.054 0,-12.838 -6.1995,-20.606 -19.373,-20.606 -12.829,0 -20.751,8.8218 -20.751,22.055 0,12.838 6.1994,20.606 19.373,20.606 z m -7.8355,-22.252 c 0,-8.2951 2.5831,-12.903 8.352,-12.903 4.047,0 6.6301,2.7651 7.8355,7.3076 l -16.187,6.3859 v -0.79003 z m 8.6965,14.747 c -3.9607,0 -6.5438,-2.6334 -7.7493,-7.0443 l 16.101,-6.3201 v 0.46082 c 0,8.2952 -2.5831,12.904 -8.352,12.904 z"
     id="path118" />
  <rect
     x="363.29999"
     y="858.78003"
     width="90.778"
     height="80.353996"
     rx="13.168"
     ry="14.984"
     id="rect122"
     style="fill:#ffff00" />
  <path
     d="m 393.55,915.44 c 9.3065,0 15.053,-6.3993 15.053,-15.998 0,-9.3123 -4.497,-14.947 -14.053,-14.947 -9.3064,0 -15.053,6.3992 -15.053,15.998 0,9.3124 4.4971,14.948 14.053,14.948 z m -5.6837,-16.141 c 0,-6.0172 1.8738,-9.3601 6.0585,-9.3601 2.9356,0 4.8093,2.0057 5.6838,5.3008 l -11.742,4.6324 v -0.57308 z m 6.3083,10.697 c -2.8731,0 -4.7468,-1.9102 -5.6213,-5.1099 l 11.68,-4.5845 v 0.33428 c 0,6.0172 -1.8738,9.3601 -6.0586,9.3601 z"
     stroke-width="1.024"
     id="path124" />
  <path
     d="m 427.95,915.44 c 9.3064,0 15.053,-6.3993 15.053,-15.998 0,-9.3123 -4.4971,-14.947 -14.053,-14.947 -9.3064,0 -15.053,6.3992 -15.053,15.998 0,9.3124 4.4971,14.948 14.053,14.948 z m -5.6838,-16.141 c 0,-6.0172 1.8738,-9.3601 6.0585,-9.3601 2.9356,0 4.8093,2.0057 5.6838,5.3008 l -11.742,4.6324 v -0.57308 z m 6.3084,10.697 c -2.8732,0 -4.7469,-1.9102 -5.6213,-5.1099 l 11.68,-4.5845 v 0.33428 c 0,6.0172 -1.8738,9.3601 -6.0585,9.3601 z"
     stroke-width="1.024"
     id="path126" />
  <rect
     x="606.46002"
     y="397.78"
     width="90.778"
     height="80.353996"
     rx="13.168"
     ry="14.984"
     id="rect130"
     style="fill:#ffff00" />
  <path
     d="m 679.09,443.91 v -12.632 h -19.14 v -17.833 h -15.385 v 17.833 h -19.261 v 12.632 h 19.261 v 17.94 h 15.385 v -17.94 z"
     stroke-width="2.1262"
     id="path132" />
  <rect
     x="606.28998"
     y="857.78003"
     width="90.778"
     height="80.353996"
     rx="13.168"
     ry="14.984"
     id="rect136"
     style="fill:#ffff00" />
  <path
     d="m 677.21,882.84 h -49.995 v 10.831 h 49.995 z m 0,19.841 h -49.995 v 10.831 h 49.995 z"
     stroke-width="1.9516"
     id="path138" />
  <rect
     x="607.45001"
     y="743.78003"
     width="90.778"
     height="80.353996"
     rx="13.168"
     ry="14.984"
     id="rect142"
     style="fill:#ffff00" />
  <path
     d="m 680.05,778.46 h -49.197 v 14.005 h 47.38 z"
     stroke-width="2.4818"
     id="path144" />
  <rect
     x="119.48"
     y="398.20999"
     width="90.778"
     height="80.353996"
     rx="13.168"
     ry="14.984"
     id="rect148"
     style="fill:#ffff00" />
  <path
     d="m 164.44,409.63 a 27.705,27.705 0 1 0 27.705,27.705 27.705,27.705 0 0 0 -27.705,-27.705 z m 7.7574,48.788 c -0.1608,-2.1673 -0.3396,-4.8484 -0.3485,-5.9388 -0.067,-0.83115 -0.1609,-2.9538 -2.1717,-4.3077 7.9943,-0.67028 11.802,-5.0897 12.065,-10.935 0.2279,-3.3246 -1.0948,-6.256 -3.4408,-8.611 a 46.661,46.661 0 0 0 -0.2324,-6.8236 c -1.7875,-0.51835 -6.0059,1.7025 -7.1811,2.6499 -2.4802,-0.96075 -8.544,-1.2959 -12.231,0 -2.6141,-1.8455 -5.5901,-2.9806 -7.2123,-2.6499 -1.4969,3.3157 -0.5361,6.4527 -0.2412,6.828 -1.9304,1.7606 -4.6205,3.9279 -3.8877,8.4904 1.1708,6.6627 5.8584,10.278 13.406,11.136 a 2.4443,2.4443 0 0 0 -2.0198,2.0511 c -5.0674,2.0913 -6.5152,-1.2914 -7.1498,-2.1718 -2.127,-2.6365 -4.0218,-1.8723 -4.1558,-1.8276 a 0.33068,0.33068 0 0 0 -0.1877,0.28599 c 0.1073,0.56751 1.2646,1.144 1.3406,1.1886 1.5685,1.1708 2.1495,3.2844 2.5113,3.8877 2.2343,3.7 7.4849,2.1673 7.5341,2.1986 0,0.32174 -0.036,3.0476 -0.067,5.1657 a 22.504,22.504 0 1 1 13.692,-0.58539 z"
     id="path150" />
  <rect
     x="484.78"
     y="858.27002"
     width="90.778"
     height="80.353996"
     rx="13.168"
     ry="14.984"
     id="rect154"
     style="fill:#ffff00" />
  <circle
     cx="530.71997"
     cy="900.51001"
     r="10"
     fill-rule="evenodd"
     id="circle156" />
  <rect
     x="606.46002"
     y="513.28003"
     width="90.778"
     height="80.353996"
     rx="13.168"
     ry="14.984"
     id="rect160"
     style="fill:#ffff00" />
  <path
     d="m 658.48,544.52 0.2689,-11.563 h -12.728 l -0.1792,11.563 z m 13.624,4.9297 h -39.797 v 10.666 h 39.797 z m -13.624,27.158 0.1791,-11.563 h -12.728 l -0.1793,11.563 z"
     stroke-width="2.3725"
     id="path162" />
  <rect
     x="606.84998"
     y="629.28003"
     width="90.778"
     height="80.353996"
     rx="13.168"
     ry="14.984"
     id="rect166"
     style="fill:#ffff00" />
  <path
     d="m 659.22,691.32 12.226,-0.37735 -12.302,-18.944 12.151,-19.019 h -11.321 l -7.3207,12.679 -7.6982,-12.906 -12.075,0.45283 12.226,18.868 -12.151,19.094 h 11.321 l 7.3207,-12.604 z"
     stroke-width="1.9977"
     id="path168" />
  <rect
     x="120.47"
     y="744.21002"
     width="90.778"
     height="80.353996"
     rx="13.168"
     ry="14.984"
     id="rect172"
     style="fill:#ffff00" />
  <path
     d="m 178.39,796.7 c -13.76,0.768 -17.92,-2.688 -17.92,-12.864 0,-8.192 2.176,-11.584 17.536,-10.816 l -0.512,-8.96 c -19.968,0.128 -26.816,9.792 -26.816,20.992 0,12.16 6.208,21.504 26.944,19.584 z"
     id="path174" />
  <rect
     x="119.31"
     y="858.21002"
     width="90.778"
     height="80.353996"
     rx="13.168"
     ry="14.984"
     id="rect178"
     style="fill:#ffff00" />
  <path
     d="m 159.59,909.39 c -13.76,0.768 -17.92,-2.688 -17.92,-12.864 0,-8.192 2.176,-11.584 17.536,-10.816 l -0.512,-8.96 c -19.968,0.128 -26.816,9.792 -26.816,20.992 0,12.16 6.208,21.504 26.944,19.584 z"
     id="path180" />
  <path
     d="m 195.04,909.32 h -16.512 v -8.768 h 13.568 v -6.784 h -13.568 v -8.64 h 16.064 v -7.744 H 169.12 v 39.68 h 25.216 z"
     id="path182" />
  <rect
     x="240.46001"
     y="398.78"
     width="90.778"
     height="80.353996"
     rx="13.168"
     ry="14.984"
     id="rect186"
     style="fill:#ffff00" />
  <path
     d="m 273.32,421.91 0.576,-9.28 h -9.536 l -0.576,9.28 z m 9.728,36.864 0.768,-6.784 h -10.432 v -25.6 h -19.136 l -0.704,6.464 10.688,0.512 V 451.99 H 253.8 v 6.784 z"
     id="path188" />
  <path
     d="m 302.89,433.24 c 2.624,0 4.352,1.472 4.352,6.656 v 18.88 h 9.088 v -22.144 c 0,-7.872 -3.456,-11.136 -8.96,-11.136 -4.352,0 -7.488,1.984 -9.92,4.288 l -0.448,-3.584 -8.448,0.448 c 0.448,7.232 0.576,17.152 0.576,32.128 h 9.088 c 0,-9.6 -0.128,-17.856 -0.256,-24 1.472,-0.96 3.072,-1.536 4.928,-1.536 z"
     id="path190" />
  <rect
     x="363.47"
     y="398.78"
     width="90.778"
     height="80.353996"
     rx="13.168"
     ry="14.984"
     id="rect194"
     style="fill:#ffff00"
     sodipodi:insensitive="true" />
  <path
     d="m 406.72105,430.65789 -13.40025,14.15895 12.01107,-6.66806 6.39022,6.87109 13.26133,-14.37267 -11.73323,6.59327 z m 2.50052,-14.09483 c 12.35302,0 22.21619,9.47848 22.21619,21.10485 0,11.62636 -9.86317,21.10485 -22.21619,21.10485 -2.66081,0 -5.1934,-0.50225 -7.56569,-1.31438 l -0.89762,-0.27784 -4.86213,2.42572 v -5.00104 l -0.83351,-0.69459 c -4.92625,-3.88971 -8.05724,-9.71358 -8.05724,-16.24272 0,-11.62637 9.86317,-21.10485 22.21619,-21.10485 z m 0,-4.44538 c -14.63982,0 -26.66157,11.41265 -26.66157,25.55023 0,7.53363 3.48364,14.22306 8.89075,18.88216 V 466.83 l 9.86318,-4.92625 c 2.51121,0.75871 5.12928,1.31438 7.91833,1.31438 14.63982,0 26.66157,-11.41265 26.66157,-25.55022 0,-14.13758 -12.03244,-25.55023 -26.67226,-25.55023"
     fill="#000"
     id="path196"
     style="stroke-width:0.010686" />
  <rect
     x="119.87"
     y="629.71002"
     width="90.778"
     height="80.353996"
     rx="13.168"
     ry="14.984"
     id="rect204"
     style="fill:#ffff00" />
  <path
     d="m 162.68,690.08 9.1774,-0.28324 -9.234,-14.22 9.1206,-14.276 h -8.4975 l -5.495,9.5172 -5.7784,-9.6872 -9.0639,0.3399 9.1773,14.162 -9.1207,14.332 h 8.4975 l 5.495,-9.4606 z"
     stroke-width="1.4995"
     id="path206" />
  <path
     d="m 186.67,666.41 5.8708,-0.18119 -5.907,-9.0963 5.8345,-9.1323 h -5.4359 l -3.5152,6.0882 -3.6964,-6.1969 -5.7982,0.21743 5.8707,9.0596 -5.8345,9.1683 h 5.4359 l 3.5152,-6.052 z"
     stroke-width="0.95923"
     id="path208" />
  <rect
     x="484.95001"
     y="398.26999"
     width="90.778"
     height="80.353996"
     rx="13.168"
     ry="14.984"
     id="rect212"
     style="fill:#ffff00"
     sodipodi:insensitive="true" />
  <path
     d="m 529.48496,424.00451 -18.66992,15.39221 c 0,0.0217 -0.005,0.0537 -0.0164,0.0972 -0.0107,0.0432 -0.0164,0.0746 -0.0164,0.0969 v 15.58556 c 0,0.56274 0.20574,1.05041 0.6171,1.46109 0.41125,0.41091 0.89824,0.61767 1.46109,0.61767 h 12.46822 v -12.46936 h 8.31332 v 12.46936 h 12.46822 c 0.56273,0 1.05041,-0.20631 1.46109,-0.61812 0.41136,-0.41023 0.61778,-0.89824 0.61778,-1.46109 v -15.58556 c 0,-0.0864 -0.0118,-0.15172 -0.0328,-0.19414 z"
     id="path214"
     style="stroke-width:0.11373" />
  <path
     d="m 555.29826,435.88929 -7.11063,-5.90964 v -13.2484 c 0,-0.30287 -0.0974,-0.55194 -0.29274,-0.74687 -0.1938,-0.19471 -0.44287,-0.29206 -0.74641,-0.29206 h -6.23422 c -0.30321,0 -0.55216,0.0974 -0.74721,0.29206 -0.19459,0.19493 -0.29183,0.44412 -0.29183,0.74687 v 6.33169 l -7.92266,-6.62421 c -0.69193,-0.56285 -1.51466,-0.84422 -2.46726,-0.84422 -0.95249,0 -1.7751,0.28137 -2.46771,0.84422 l -23.3465,19.45011 c -0.21643,0.17287 -0.33505,0.40556 -0.35711,0.69784 -0.022,0.29206 0.0537,0.54716 0.22712,0.76347 l 2.01313,2.40289 c 0.17344,0.19471 0.40045,0.31378 0.68193,0.35734 0.25987,0.0218 0.51975,-0.0541 0.77962,-0.22723 l 22.46963,-18.73588 22.46964,18.73588 c 0.17355,0.15103 0.40044,0.22643 0.68193,0.22643 h 0.0976 c 0.28102,-0.0428 0.50757,-0.16263 0.68192,-0.35688 l 2.01336,-2.40255 c 0.1731,-0.21677 0.24896,-0.47141 0.22644,-0.76381 -0.0222,-0.29149 -0.14125,-0.52418 -0.35723,-0.69739 z"
     id="path216"
     style="stroke-width:0.11373" />
  <rect
     x="119.47"
     y="513.71002"
     width="90.778"
     height="80.353996"
     rx="13.168"
     ry="14.984"
     id="rect222"
     style="fill:#ffff00"
     sodipodi:insensitive="true" />
  <path
     d="m 164.20603,532.35168 c -3.09142,0.22994 -6.11137,1.09403 -8.78995,2.5001 -1.45111,0.77192 -3.81111,2.61963 -4.76682,3.74103 -2.45428,2.86782 -3.56342,6.13072 -3.19741,9.37586 0.21259,1.90291 0.71971,3.2629 1.84056,4.96371 0.79057,1.18573 1.67541,2.16023 3.84625,4.21916 2.90225,2.74829 3.88198,3.87881 4.66023,5.39576 0.42455,0.81801 0.81398,1.90292 0.93229,2.60139 0.0709,0.43205 0.0709,0.44117 -0.28344,0.49638 -1.14426,0.18386 -1.69884,1.39694 -0.95571,2.12326 0.53116,0.53333 0.25941,0.51461 8.48307,0.51461 6.44225,0 7.60993,-0.0182 7.90508,-0.13777 1.34514,-0.54246 1.18001,-2.11414 -0.25941,-2.4545 l -0.47201,-0.11041 0.0825,-0.50549 c 0.20088,-1.21357 1.03827,-2.97823 2.0291,-4.25565 0.71971,-0.92841 1.45113,-1.69121 3.5511,-3.66758 0.92059,-0.88233 2.01741,-1.97636 2.44257,-2.42665 1.52199,-1.66385 2.65455,-3.71367 3.0791,-5.5609 0.28344,-1.25917 0.25941,-3.50196 -0.0592,-4.88067 -1.01488,-4.50383 -4.7194,-8.38263 -9.98164,-10.46029 -2.08827,-0.818 -4.2474,-1.29613 -6.72509,-1.47999 -1.43819,-0.10177 -1.89786,-0.10177 -3.36131,0.009 z m -2.57198,3.4746 c 0.25942,0.22034 0.33028,0.37684 0.33028,0.68935 0,0.54246 -0.33028,0.83625 -1.28599,1.1766 -1.6637,0.57895 -3.48085,1.6821 -4.62511,2.81262 -1.12084,1.09403 -1.69883,1.96724 -2.52514,3.81448 -0.42455,0.93753 -1.92312,1.08443 -2.4777,0.24818 -0.2477,-0.37684 -0.22429,-0.64327 0.17684,-1.57168 1.34514,-3.14337 4.08227,-5.57002 8.02279,-7.13259 0.84971,-0.33987 1.08572,-0.39508 1.53369,-0.35859 0.40175,0.0274 0.60263,0.10081 0.85034,0.32163 z"
     id="path224"
     style="stroke-width:0.0543876" />
  <path
     d="m 158.36578,569.76246 c -0.47199,0.11041 -0.68396,0.2573 -0.99083,0.63414 -0.31856,0.4138 -0.30686,0.87321 0.0234,1.3235 0.53115,0.73544 0.14172,0.69847 8.55393,0.69847 8.27048,0 7.99936,0.0182 8.55392,-0.58854 0.18856,-0.2021 0.25942,-0.4138 0.25942,-0.7628 0,-0.51461 -0.21258,-0.82712 -0.81398,-1.16748 -0.31857,-0.19298 -0.44859,-0.19298 -7.77507,-0.21122 -4.3657,-0.009 -7.59822,0.0187 -7.81081,0.0739 z"
     id="path226"
     style="stroke-width:0.0543876" />
  <path
     d="m 158.11807,573.92641 c -0.81397,0.27555 -1.2034,1.1766 -0.79056,1.80163 0.30685,0.45028 0.8374,0.69847 1.69883,0.77192 1.22684,0.11041 1.79311,0.42292 2.61942,1.44303 0.82569,1.0297 1.91142,1.36958 4.32995,1.36958 2.41855,0 3.50428,-0.33988 4.32996,-1.36958 0.8257,-1.02011 1.39198,-1.33262 2.61943,-1.44303 0.86143,-0.0734 1.39258,-0.32164 1.69882,-0.77192 0.42456,-0.63415 0.0115,-1.5352 -0.81398,-1.80163 -0.56628,-0.18386 -15.149,-0.18386 -15.69187,0 z"
     id="path228"
     style="stroke-width:0.0543876" />
</svg>
