<svg width="760.87" height="1002.3" version="1.1" viewBox="0 0 760.87 1002.3" xmlns="http://www.w3.org/2000/svg">

    <g stroke="#000" stroke-width="4">
        <rect x="4" y="4" width="702.95" height="994.31" rx="109.05" ry="61.432" fill="#a6a7b9" />
        <rect x="53.918" y="4" width="702.95" height="994.31" rx="79.633" ry="61.432" fill="#dddddc" />
        <rect x="107.78" y="122.84" width="591.96" height="204.96" rx="38.429" ry="28.857" fill="none"
            stroke-linejoin="round" />
    </g>
    <rect id="icc_visor" x="107.78" y="120.82" width="571.98" height="206.98" rx="38.429" ry="28.857" fill="#a5a7b9"
        fill-rule="evenodd" stroke="#000" stroke-linejoin="round" stroke-width="4" />
    <g id="icc-shadow" transform="translate(-968.77 20.159)" fill="#3e4052">
        <rect x="1318.2" y="379.33" width="90.778" height="80.354" rx="13.168" ry="14.984" />
        <rect x="1074.2" y="378.76" width="90.778" height="80.354" rx="13.168" ry="14.984" />
        <rect x="1561.1" y="378.33" width="90.778" height="80.354" rx="13.168" ry="14.984" />
        <rect x="1439.6" y="378.82" width="90.778" height="80.354" rx="13.168" ry="14.984" />
        <rect x="1195.1" y="379.33" width="90.778" height="80.354" rx="13.168" ry="14.984" />
        <rect x="1318.1" y="494.83" width="90.778" height="80.354" rx="13.168" ry="14.984" />
        <rect x="1074.2" y="494.26" width="90.778" height="80.354" rx="13.168" ry="14.984" />
        <rect x="1561.1" y="493.83" width="90.778" height="80.354" rx="13.168" ry="14.984" />
        <rect x="1439.6" y="494.32" width="90.778" height="80.354" rx="13.168" ry="14.984" />
        <rect x="1195.1" y="494.83" width="90.778" height="80.354" rx="13.168" ry="14.984" />
        <rect x="1318.5" y="610.82" width="90.778" height="80.354" rx="13.168" ry="14.984" />
        <rect x="1074.6" y="610.26" width="90.778" height="80.354" rx="13.168" ry="14.984" />
        <rect x="1561.5" y="609.83" width="90.778" height="80.354" rx="13.168" ry="14.984" />
        <rect x="1440" y="610.32" width="90.778" height="80.354" rx="13.168" ry="14.984" />
        <rect x="1195.5" y="610.82" width="90.778" height="80.354" rx="13.168" ry="14.984" />
        <rect x="1319.1" y="725.33" width="90.778" height="80.354" rx="13.168" ry="14.984" />
        <rect x="1075.2" y="724.76" width="90.778" height="80.354" rx="13.168" ry="14.984" />
        <rect x="1562.1" y="724.33" width="90.778" height="80.354" rx="13.168" ry="14.984" />
        <rect x="1440.6" y="724.82" width="90.778" height="80.354" rx="13.168" ry="14.984" />
        <rect x="1196.1" y="725.33" width="90.778" height="80.354" rx="13.168" ry="14.984" />
        <rect x="1318" y="839.33" width="90.778" height="80.354" rx="13.168" ry="14.984" />
        <rect x="1074" y="838.76" width="90.778" height="80.354" rx="13.168" ry="14.984" />
        <rect x="1561" y="838.33" width="90.778" height="80.354" rx="13.168" ry="14.984" />
        <rect x="1439.5" y="838.82" width="90.778" height="80.354" rx="13.168" ry="14.984" />
        <rect x="1195" y="839.33" width="90.778" height="80.354" rx="13.168" ry="14.984" />
    </g>
    <g data-number="1">
        <rect x="241.45" y="744.78" width="90.778" height="80.354" rx="13.168" ry="14.984" fill="#a5a7b9" stroke="#000"
            stroke-width="4" />
        <path
            d="m306.39 807.16 0.9471-7.7684h-12.657v-34.234l-11.71 0.72417v4.8717l-12.743 0.92168 0.2584 6.7809h12.485v20.935h-14.207v7.7684z"
            stroke-width="1.4117" />
    </g>
    <g data-number="2">
        <rect x="364.46" y="744.78" width="90.778" height="80.354" rx="13.168" ry="14.984" fill="#a5a7b9" stroke="#000"
            stroke-width="4" />
        <path
            d="m426.13 806.43v-7.9659h-21.44c12.657-7.3734 20.407-12.904 20.407-21.001 0-6.8468-7.491-12.574-32.633-12.377l-1.0332 8.6243c16.618 0.32918 21.526 2.0409 21.526 6.3201 0 5.3326-8.1799 10.731-23.162 19.092l1.2054 7.3076z"
            stroke-width="1.4117" />
    </g>
    <g data-number="3">
        <rect x="485.94" y="744.27" width="90.778" height="80.354" rx="13.168" ry="14.984" fill="#a5a7b9" stroke="#000"
            stroke-width="4" />
        <path
            d="m513.91 808.14c23.765-0.92168 34.097-6.3201 34.097-13.496 0-4.5426-4.908-8.5585-17.651-10.599l16.274-9.6118-0.8611-8.0318h-31.686v8.0318h20.148l-17.221 10.27v4.0817c14.035 1.3825 19.201 4.0817 19.201 6.4518 0 2.5017-4.994 3.6209-23.076 4.4767z"
            stroke-width="1.4117" />
    </g>
    <g data-number="4">
        <rect x="240.84" y="630.27" width="90.778" height="80.354" rx="13.168" ry="14.984" fill="#a5a7b9" stroke="#000"
            stroke-width="4" />
        <path
            d="m305.41 685.83 0.9471-7.966h-5.6828v-13.759l-11.194 0.92168v12.838h-12.657l8.5243-25.675-13.002-0.59251c-3.7886 11.719-5.5968 25.149-5.0801 34.234h22.215v6.9784h11.194v-6.9784z"
            stroke-width="1.4117" />
    </g>
    <g data-number="5">
        <rect x="363.85" y="630.27" width="90.778" height="80.354" rx="13.168" ry="14.984" fill="#a5a7b9" stroke="#000"
            stroke-width="4" />
        <path
            d="m425.88 678.48c0-5.1351-5.1662-9.7435-22.301-11.718l0.5167-7.0443 19.287 0.0658 0.9472-8.0976h-30.395l-1.6361 20.935c16.101 1.5142 22.215 3.6867 22.215 6.5176 0 3.4234-5.5968 4.6742-23.679 5.7934l0.6888 8.5585c24.109-1.1192 34.355-7.3076 34.355-15.01z"
            stroke-width="1.4117" />
    </g>
    <g data-number="6">
        <rect x="485.34" y="629.77" width="90.778" height="80.354" rx="13.168" ry="14.984" fill="#a5a7b9" stroke="#000"
            stroke-width="4" />
        <path
            d="m528.58 692.91c10.419 0 19.459-5.3984 19.459-14.22 0-10.468-13.777-14.813-25.831-9.4143 2.1526-4.5426 7.6632-8.0976 20.579-11.85l-4.994-7.7026c-19.546 6.4518-28.156 15.537-28.156 26.992 0 10.533 7.5771 16.195 18.943 16.195zm1.1194-7.2418c-4.8219 0-8.6965-2.8967-8.6965-9.8751v-1.1192c9.3853-3.16 15.757-0.92168 15.757 4.8059 0 4.1476-2.8413 6.1884-7.0604 6.1884z"
            stroke-width="1.4117" />
    </g>
    <g data-number="7">
        <rect x="240.45" y="514.28" width="90.778" height="80.354" rx="13.168" ry="14.984" fill="#a5a7b9" stroke="#000"
            stroke-width="4" />
        <path
            d="m282.75 576.33c4.9079-11.192 11.71-22.647 20.062-33.378v-8.0318h-36.078l-0.861 8.2951h24.626l0.2583 0.395c-8.4383 10.402-15.413 20.935-20.321 31.732z"
            stroke-width="1.4117" />
    </g>
    <g data-number="8">
        <rect x="363.46" y="514.28" width="90.778" height="80.354" rx="13.168" ry="14.984" fill="#a5a7b9" stroke="#000"
            stroke-width="4" />
        <path
            d="m407.72 576.77c12.485 0 20.062-5.2668 20.062-11.916 0-4.9376-4.9079-8.0318-10.505-10.533 5.9412-2.4359 9.3853-5.5301 9.3853-10.204 0-6.1226-7.6632-10.007-17.393-10.007-12.313 0-18.857 5.7934-18.857 11.521 0 4.4109 4.133 7.5051 9.127 10.007-6.1134 2.6334-9.8159 6.1226-9.8159 10.731 0 6.3201 7.6632 10.402 17.996 10.402zm-5.6828-32.193c0-1.8434 2.2386-3.4892 6.5438-3.4892 4.8219 0 6.8023 2.0409 6.8023 4.7401 0 2.1067-1.6361 4.2134-4.3052 5.7934-4.908-2.0409-9.041-4.0817-9.041-7.0443zm6.8022 25.215c-5.4246 0-7.6632-2.2384-7.6632-5.2667 0-2.37 1.636-4.5426 4.3913-6.1884 5.5107 2.4359 10.505 4.6084 10.505 7.6368 0 2.1725-2.8415 3.8184-7.2328 3.8184z"
            stroke-width="1.4117" />
    </g>
    <g data-number="9">
        <rect x="484.94" y="513.77" width="90.778" height="80.354" rx="13.168" ry="14.984" fill="#a5a7b9" stroke="#000"
            stroke-width="4" />
        <path
            d="m523.74 577.15c19.546-6.4518 28.156-15.537 28.156-26.992 0-10.599-7.5772-16.195-18.943-16.195-10.419 0-19.46 5.3984-19.46 14.22 0 10.468 13.777 14.747 25.831 9.4143-2.1525 4.5426-7.6632 8.0318-20.579 11.85zm1.0333-29.823c0-4.0817 2.8415-6.1226 7.0605-6.1226 4.8218 0 8.6965 2.8967 8.6965 9.8751v1.1192c-9.3853 3.0942-15.757 0.92168-15.757-4.8717z"
            stroke-width="1.4117" />
    </g>
    <g data-number="0">
        <rect x="240.29" y="858.78" width="90.778" height="80.354" rx="13.168" ry="14.984" fill="#a5a7b9" stroke="#000"
            stroke-width="4" />
        <path
            d="m282.33 920.05c12.829 0 20.751-8.8218 20.751-22.054 0-12.838-6.1995-20.606-19.373-20.606-12.829 0-20.751 8.8218-20.751 22.055 0 12.838 6.1994 20.606 19.373 20.606zm-7.8355-22.252c0-8.2951 2.5831-12.903 8.352-12.903 4.047 0 6.6301 2.7651 7.8355 7.3076l-16.187 6.3859v-0.79003zm8.6965 14.747c-3.9607 0-6.5438-2.6334-7.7493-7.0443l16.101-6.3201v0.46082c0 8.2952-2.5831 12.904-8.352 12.904z"
            stroke-width="1.4117" />
    </g>
    <g data-number="00">
        <rect x="363.3" y="858.78" width="90.778" height="80.354" rx="13.168" ry="14.984" fill="#a5a7b9" stroke="#000"
            stroke-width="4" />
        <path
            d="m393.55 915.44c9.3065 0 15.053-6.3993 15.053-15.998 0-9.3123-4.497-14.947-14.053-14.947-9.3064 0-15.053 6.3992-15.053 15.998 0 9.3124 4.4971 14.948 14.053 14.948zm-5.6837-16.141c0-6.0172 1.8738-9.3601 6.0585-9.3601 2.9356 0 4.8093 2.0057 5.6838 5.3008l-11.742 4.6324v-0.57308zm6.3083 10.697c-2.8731 0-4.7468-1.9102-5.6213-5.1099l11.68-4.5845v0.33428c0 6.0172-1.8738 9.3601-6.0586 9.3601z"
            stroke-width="1.024" />
        <path
            d="m427.95 915.44c9.3064 0 15.053-6.3993 15.053-15.998 0-9.3123-4.4971-14.947-14.053-14.947-9.3064 0-15.053 6.3992-15.053 15.998 0 9.3124 4.4971 14.948 14.053 14.948zm-5.6838-16.141c0-6.0172 1.8738-9.3601 6.0585-9.3601 2.9356 0 4.8093 2.0057 5.6838 5.3008l-11.742 4.6324v-0.57308zm6.3084 10.697c-2.8732 0-4.7469-1.9102-5.6213-5.1099l11.68-4.5845v0.33428c0 6.0172-1.8738 9.3601-6.0585 9.3601z"
            stroke-width="1.024" />
    </g>
    <g data-op="soma">
        <rect x="606.46" y="397.78" width="90.778" height="80.354" rx="13.168" ry="14.984" fill="#a5a7b9" stroke="#000"
            stroke-width="4" />
        <path d="m679.09 443.91v-12.632h-19.14v-17.833h-15.385v17.833h-19.261v12.632h19.261v17.94h15.385v-17.94z"
            stroke-width="2.1262" />
    </g>
    <g data-op="igual">
        <rect x="606.29" y="857.78" width="90.778" height="80.354" rx="13.168" ry="14.984" fill="#a5a7b9" stroke="#000"
            stroke-width="4" />
        <path d="m677.21 882.84h-49.995v10.831h49.995zm0 19.841h-49.995v10.831h49.995z" stroke-width="1.9516" />
    </g>
    <g data-op="subtracao">
        <rect x="607.45" y="743.78" width="90.778" height="80.354" rx="13.168" ry="14.984" fill="#a5a7b9" stroke="#000"
            stroke-width="4" />
        <path d="m680.05 778.46h-49.197v14.005h47.38z" stroke-width="2.4818" />
    </g>
    <g data-op="github">
        <rect x="119.48" y="398.21" width="90.778" height="80.354" rx="13.168" ry="14.984" fill="#a5a7b9" stroke="#000"
            stroke-width="4" />
        <path class="cls-1"
            d="m164.44 409.63a27.705 27.705 0 1 0 27.705 27.705 27.705 27.705 0 0 0-27.705-27.705zm7.7574 48.788c-0.1608-2.1673-0.3396-4.8484-0.3485-5.9388-0.067-0.83115-0.1609-2.9538-2.1717-4.3077 7.9943-0.67028 11.802-5.0897 12.065-10.935 0.2279-3.3246-1.0948-6.256-3.4408-8.611a46.661 46.661 0 0 0-0.2324-6.8236c-1.7875-0.51835-6.0059 1.7025-7.1811 2.6499-2.4802-0.96075-8.544-1.2959-12.231 0-2.6141-1.8455-5.5901-2.9806-7.2123-2.6499-1.4969 3.3157-0.5361 6.4527-0.2412 6.828-1.9304 1.7606-4.6205 3.9279-3.8877 8.4904 1.1708 6.6627 5.8584 10.278 13.406 11.136a2.4443 2.4443 0 0 0-2.0198 2.0511c-5.0674 2.0913-6.5152-1.2914-7.1498-2.1718-2.127-2.6365-4.0218-1.8723-4.1558-1.8276a0.33068 0.33068 0 0 0-0.1877 0.28599c0.1073 0.56751 1.2646 1.144 1.3406 1.1886 1.5685 1.1708 2.1495 3.2844 2.5113 3.8877 2.2343 3.7 7.4849 2.1673 7.5341 2.1986 0 0.32174-0.036 3.0476-0.067 5.1657a22.504 22.504 0 1 1 13.692-0.58539z"
            stroke-width=".63083" />
    </g>
    <g data-number=",">
        <rect x="484.78" y="858.27" width="90.778" height="80.354" rx="13.168" ry="14.984" fill="#a5a7b9" stroke="#000"
            stroke-width="4" />
        <circle cx="530.72" cy="900.51" r="10" fill-rule="evenodd" />
    </g>
    <g data-op="divisao">
        <rect x="606.46" y="513.28" width="90.778" height="80.354" rx="13.168" ry="14.984" fill="#a5a7b9" stroke="#000"
            stroke-width="4" />
        <path
            d="m658.48 544.52 0.2689-11.563h-12.728l-0.1792 11.563zm13.624 4.9297h-39.797v10.666h39.797zm-13.624 27.158 0.1791-11.563h-12.728l-0.1793 11.563z"
            stroke-width="2.3725" />
    </g>
    <g data-op="mult">
        <rect x="606.85" y="629.28" width="90.778" height="80.354" rx="13.168" ry="14.984" fill="#a5a7b9" stroke="#000"
            stroke-width="4" />
        <path
            d="m659.22 691.32 12.226-0.37735-12.302-18.944 12.151-19.019h-11.321l-7.3207 12.679-7.6982-12.906-12.075 0.45283 12.226 18.868-12.151 19.094h11.321l7.3207-12.604z"
            stroke-width="1.9977" />
    </g>
    <g data-op="backspace">
        <rect x="120.47" y="744.21" width="90.778" height="80.354" rx="13.168" ry="14.984" fill="#a5a7b9" stroke="#000"
            stroke-width="4" />
        <path
            d="m178.39 796.7c-13.76 0.768-17.92-2.688-17.92-12.864 0-8.192 2.176-11.584 17.536-10.816l-0.512-8.96c-19.968 0.128-26.816 9.792-26.816 20.992 0 12.16 6.208 21.504 26.944 19.584z" />
    </g>
    <g data-op="clear">
        <rect x="119.31" y="858.21" width="90.778" height="80.354" rx="13.168" ry="14.984" fill="#a5a7b9" stroke="#000"
            stroke-width="4" />
        <path
            d="m159.59 909.39c-13.76 0.768-17.92-2.688-17.92-12.864 0-8.192 2.176-11.584 17.536-10.816l-0.512-8.96c-19.968 0.128-26.816 9.792-26.816 20.992 0 12.16 6.208 21.504 26.944 19.584z" />
        <path d="m195.04 909.32h-16.512v-8.768h13.568v-6.784h-13.568v-8.64h16.064v-7.744h-25.472v39.68h25.216z" />
    </g>
    <g data-op="linkedin">
        <rect x="240.46" y="398.78" width="90.778" height="80.354" rx="13.168" ry="14.984" fill="#a5a7b9" stroke="#000"
            stroke-width="4" />
        <path
            d="m273.32 421.91 0.576-9.28h-9.536l-0.576 9.28zm9.728 36.864 0.768-6.784h-10.432v-25.6h-19.136l-0.704 6.464 10.688 0.512v18.624h-10.432v6.784z" />
        <path
            d="m302.89 433.24c2.624 0 4.352 1.472 4.352 6.656v18.88h9.088v-22.144c0-7.872-3.456-11.136-8.96-11.136-4.352 0-7.488 1.984-9.92 4.288l-0.448-3.584-8.448 0.448c0.448 7.232 0.576 17.152 0.576 32.128h9.088c0-9.6-0.128-17.856-0.256-24 1.472-0.96 3.072-1.536 4.928-1.536z" />
    </g>
    <g data-op="menssger">
        <rect x="363.47" y="398.78" width="90.778" height="80.354" rx="13.168" ry="14.984" fill="#a5a7b9" stroke="#000"
            stroke-width="4" />
        <g transform="matrix(.10686 0 0 -.10686 382.56 466.83)">
            <g transform="scale(.1)">
                <path
                    d="m2261 3385-1254-1325 1124 624 598-643 1241 1345-1098-617zm234 1319c1156 0 2079-887 2079-1975s-923-1975-2079-1975c-249 0-486 47-708 123l-84 26-455-227v468l-78 65c-461 364-754 909-754 1520 0 1088 923 1975 2079 1975zm0 416c-1370 0-2495-1068-2495-2391 0-705 326-1331 832-1767v-962l923 461c235-71 480-123 741-123 1370 0 2495 1068 2495 2391s-1126 2391-2496 2391"
                    fill="#100f0d" />
            </g>
        </g>
    </g>
    <g data-op="expo">
        <rect x="119.87" y="629.71" width="90.778" height="80.354" rx="13.168" ry="14.984" fill="#a5a7b9" stroke="#000"
            stroke-width="4" />
        <path
            d="m162.68 690.08 9.1774-0.28324-9.234-14.22 9.1206-14.276h-8.4975l-5.495 9.5172-5.7784-9.6872-9.0639 0.3399 9.1773 14.162-9.1207 14.332h8.4975l5.495-9.4606z"
            stroke-width="1.4995" />
        <path
            d="m186.67 666.41 5.8708-0.18119-5.907-9.0963 5.8345-9.1323h-5.4359l-3.5152 6.0882-3.6964-6.1969-5.7982 0.21743 5.8707 9.0596-5.8345 9.1683h5.4359l3.5152-6.052z"
            stroke-width=".95923" />
    </g>
    <g data-op="home">
        <rect x="484.95" y="398.27" width="90.778" height="80.354" rx="13.168" ry="14.984" fill="#a5a7b9" stroke="#000"
            stroke-width="4" />
        <g transform="matrix(.11373 0 0 .11373 503.31 410.25)">
            <path
                d="m230.15 120.94-164.16 135.34c0 0.191-0.048 0.472-0.144 0.855-0.094 0.38-0.144 0.656-0.144 0.852v137.04c0 4.948 1.809 9.236 5.426 12.847 3.616 3.613 7.898 5.431 12.847 5.431h109.63v-109.64h73.097v109.64h109.63c4.948 0 9.236-1.814 12.847-5.435 3.617-3.607 5.432-7.898 5.432-12.847v-137.04c0-0.76-0.104-1.334-0.288-1.707z" />
            <path
                d="m457.12 225.44-62.522-51.962v-116.49c0-2.663-0.856-4.853-2.574-6.567-1.704-1.712-3.894-2.568-6.563-2.568h-54.816c-2.666 0-4.855 0.856-6.57 2.568-1.711 1.714-2.566 3.905-2.566 6.567v55.673l-69.662-58.245c-6.084-4.949-13.318-7.423-21.694-7.423-8.375 0-15.608 2.474-21.698 7.423l-205.28 171.02c-1.903 1.52-2.946 3.566-3.14 6.136-0.193 2.568 0.472 4.811 1.997 6.713l17.701 21.128c1.525 1.712 3.521 2.759 5.996 3.142 2.285 0.192 4.57-0.476 6.855-1.998l197.57-164.74 197.57 164.74c1.526 1.328 3.521 1.991 5.996 1.991h0.858c2.471-0.376 4.463-1.43 5.996-3.138l17.703-21.125c1.522-1.906 2.189-4.145 1.991-6.716-0.195-2.563-1.242-4.609-3.141-6.132z" />
        </g>
    </g>
    <g data-op="tema">
        <rect x="119.47" y="513.71" width="90.778" height="80.354" rx="13.168" ry="14.984" fill="#a5a7b9" stroke="#000"
            stroke-width="4" />
        <g transform="matrix(.048005 0 0 .048005 139.03 530.92)" stroke-width=".1">
            <path
                d="m471.57 11.75c-50.17 4.79-99.18 22.79-142.65 52.08-23.55 16.08-61.85 54.57-77.36 77.93-39.83 59.74-57.83 127.71-51.89 195.31 3.45 39.64 11.68 67.97 29.87 103.4 12.83 24.7 27.19 45 62.42 87.89 47.1 57.25 63 80.8 75.63 112.4 6.89 17.04 13.21 39.64 15.13 54.19 1.15 9 1.15 9.19-4.6 10.34-18.57 3.83-27.57 29.1-15.51 44.23 8.62 11.11 4.21 10.72 137.67 10.72 104.55 0 123.5-0.38 128.29-2.87 21.83-11.3 19.15-44.04-4.21-51.13l-7.66-2.3 1.34-10.53c3.26-25.28 16.85-62.04 32.93-88.65 11.68-19.34 23.55-35.23 57.63-76.4 14.94-18.38 32.74-41.17 39.64-50.55 24.7-34.66 43.08-77.36 49.97-115.84 4.6-26.23 4.21-72.95-0.96-101.67-16.47-93.82-76.59-174.62-161.99-217.9-33.89-17.04-68.93-27-109.14-30.83-23.34-2.12-30.8-2.12-54.55 0.18zm-41.74 72.38c4.21 4.59 5.36 7.85 5.36 14.36 0 11.3-5.36 17.42-20.87 24.51-27 12.06-56.49 35.04-75.06 58.59-18.19 22.79-27.57 40.98-40.98 79.46-6.89 19.53-31.21 22.59-40.21 5.17-4.02-7.85-3.64-13.4 2.87-32.74 21.83-65.48 66.25-116.03 130.2-148.58 13.79-7.08 17.62-8.23 24.89-7.47 6.52 0.57 9.78 2.1 13.8 6.7z" />
            <path
                d="m376.79 791.06c-7.66 2.3-11.1 5.36-16.08 13.21-5.17 8.62-4.98 18.19 0.38 27.57 8.62 15.32 2.3 14.55 138.82 14.55 134.22 0 129.82 0.38 138.82-12.26 3.06-4.21 4.21-8.62 4.21-15.89 0-10.72-3.45-17.23-13.21-24.32-5.17-4.02-7.28-4.02-126.18-4.4-70.85-0.19-123.31 0.39-126.76 1.54z" />
            <path
                d="m372.77 877.8c-13.21 5.74-19.53 24.51-12.83 37.53 4.98 9.38 13.59 14.55 27.57 16.08 19.91 2.3 29.1 8.81 42.51 30.06 13.4 21.45 31.02 28.53 70.27 28.53s56.87-7.08 70.27-28.53c13.4-21.25 22.59-27.76 42.51-30.06 13.98-1.53 22.6-6.7 27.57-16.08 6.89-13.21 0.19-31.98-13.21-37.53-9.19-3.83-245.85-3.83-254.66 0z" />
        </g>
    </g>
</svg>